<svg width="965" height="833" viewBox="0 0 965 833" fill="none" xmlns="http://www.w3.org/2000/svg">
<g opacity="0.06" filter="url(#filter0_f_5_929)">
<ellipse cx="324" cy="363" rx="341" ry="170" fill="#219EE4"/>
</g>
<path d="M337.5 316C337.5 320.191 335.015 324.41 330.003 328.456C325.004 332.492 317.679 336.193 308.494 339.329C290.139 345.597 264.685 349.5 236.5 349.5C208.315 349.5 182.861 345.597 164.506 339.329C155.321 336.193 147.996 332.492 142.997 328.456C137.985 324.41 135.5 320.191 135.5 316C135.5 311.809 137.985 307.59 142.997 303.544C147.996 299.508 155.321 295.807 164.506 292.671C182.861 286.403 208.315 282.5 236.5 282.5C264.685 282.5 290.139 286.403 308.494 292.671C317.679 295.807 325.004 299.508 330.003 303.544C335.015 307.59 337.5 311.809 337.5 316Z" stroke="#FF8A1F" stroke-width="3"/>
<path d="M152.72 255C150.427 255 148.56 254.307 147.12 252.92C145.68 251.533 144.96 249.72 144.96 247.48V199H172.8C177.867 199 181.92 200.2 184.96 202.6C188.053 205 189.6 208.227 189.6 212.28V216.28C189.6 218.04 189.147 219.72 188.24 221.32C187.387 222.92 186.16 224.227 184.56 225.24V225.32C187.12 226.227 189.173 227.693 190.72 229.72C192.32 231.747 193.12 234.013 193.12 236.52V240.68C193.12 245.053 191.52 248.547 188.32 251.16C185.173 253.72 180.907 255 175.52 255H152.72ZM172.8 222.2C174.507 222.2 175.893 221.667 176.96 220.6C178.027 219.48 178.56 218.013 178.56 216.2V213.48C178.56 211.987 178 210.813 176.88 209.96C175.76 209.053 174.267 208.6 172.4 208.6H156V222.2H172.8ZM174.72 245.4C177.067 245.4 178.88 244.947 180.16 244.04C181.44 243.08 182.08 241.747 182.08 240.04V236.52C182.08 234.973 181.52 233.72 180.4 232.76C179.28 231.8 177.787 231.32 175.92 231.32H156V245.4H174.72ZM211.714 255.64C207.554 255.64 204.194 254.6 201.634 252.52C199.074 250.44 197.794 247.693 197.794 244.28V241.32C197.794 237.96 199.128 235.267 201.794 233.24C204.461 231.16 207.981 230.12 212.354 230.12H217.234C218.621 230.12 220.114 230.307 221.714 230.68C223.314 231.053 224.781 231.56 226.114 232.2V228.04C226.114 226.707 225.661 225.64 224.754 224.84C223.901 223.987 222.754 223.56 221.314 223.56H214.434C212.941 223.56 211.741 223.907 210.834 224.6C209.928 225.293 209.474 226.227 209.474 227.4H198.914C198.914 223.507 200.328 220.387 203.154 218.04C206.034 215.64 209.794 214.44 214.434 214.44H221.314C226.008 214.44 229.794 215.693 232.674 218.2C235.554 220.653 236.994 223.933 236.994 228.04V255H226.914V250.2C225.634 251.853 224.061 253.187 222.194 254.2C220.328 255.16 218.488 255.64 216.674 255.64H211.714ZM217.474 247.32C219.448 247.32 221.208 246.813 222.754 245.8C224.301 244.787 225.421 243.427 226.114 241.72V240.36C225.261 239.72 224.061 239.213 222.514 238.84C221.021 238.467 219.421 238.28 217.714 238.28H212.674C211.394 238.28 210.354 238.6 209.554 239.24C208.754 239.88 208.354 240.733 208.354 241.8V243.88C208.354 244.893 208.781 245.72 209.634 246.36C210.541 247 211.714 247.32 213.154 247.32H217.474ZM244.993 215.08H255.073V219.88C256.246 218.227 257.766 216.92 259.633 215.96C261.5 214.947 263.366 214.44 265.233 214.44H270.033C274.3 214.44 277.713 215.773 280.273 218.44C282.886 221.107 284.193 224.627 284.193 229V255H273.313V229.4C273.313 227.747 272.86 226.413 271.953 225.4C271.1 224.387 269.98 223.88 268.593 223.88H263.793C261.926 223.88 260.246 224.573 258.753 225.96C257.313 227.293 256.353 229.053 255.873 231.24V255H244.993V215.08ZM319.762 255L307.282 239L303.042 243.24V255H292.162V199H303.042V231L318.802 215.08H331.442L314.322 232.04L332.082 255H319.762ZM342.617 211.32C340.537 211.32 338.857 210.733 337.577 209.56C336.35 208.333 335.737 206.733 335.737 204.76C335.737 202.787 336.35 201.213 337.577 200.04C338.857 198.813 340.537 198.2 342.617 198.2C344.697 198.2 346.35 198.813 347.577 200.04C348.857 201.213 349.497 202.787 349.497 204.76C349.497 206.733 348.857 208.333 347.577 209.56C346.35 210.733 344.697 211.32 342.617 211.32ZM337.177 215.08H348.057V255H337.177V215.08ZM357.984 215.08H368.064V219.88C369.237 218.227 370.757 216.92 372.624 215.96C374.49 214.947 376.357 214.44 378.224 214.44H383.024C387.29 214.44 390.704 215.773 393.264 218.44C395.877 221.107 397.184 224.627 397.184 229V255H386.304V229.4C386.304 227.747 385.85 226.413 384.944 225.4C384.09 224.387 382.97 223.88 381.584 223.88H376.784C374.917 223.88 373.237 224.573 371.744 225.96C370.304 227.293 369.344 229.053 368.864 231.24V255H357.984V215.08ZM420.673 271.24C416.406 271.24 412.859 270.013 410.033 267.56C407.206 265.16 405.633 261.987 405.313 258.04H416.033C416.139 259.213 416.619 260.147 417.473 260.84C418.326 261.587 419.393 261.96 420.673 261.96H427.873C429.526 261.96 430.859 261.267 431.873 259.88C432.939 258.547 433.473 256.787 433.473 254.6V250.84C432.406 252.013 431.099 252.947 429.553 253.64C428.059 254.333 426.619 254.68 425.233 254.68H419.713C414.859 254.68 410.939 253.24 407.953 250.36C405.019 247.48 403.553 243.693 403.553 239V230.84C403.553 227.587 404.246 224.733 405.633 222.28C407.019 219.773 408.966 217.853 411.473 216.52C413.979 215.133 416.859 214.44 420.113 214.44H424.753C426.566 214.44 428.326 214.867 430.033 215.72C431.793 216.573 433.206 217.693 434.273 219.08V215.08H444.353V254.6C444.353 257.907 443.659 260.813 442.273 263.32C440.939 265.827 439.019 267.773 436.513 269.16C434.006 270.547 431.126 271.24 427.873 271.24H420.673ZM425.953 245.48C427.979 245.48 429.686 244.653 431.073 243C432.459 241.293 433.259 239.08 433.473 236.36V230.84C433.259 228.707 432.539 227 431.313 225.72C430.086 224.44 428.539 223.8 426.673 223.8H421.073C419.099 223.8 417.499 224.52 416.273 225.96C415.046 227.4 414.433 229.293 414.433 231.64V238.2C414.433 240.387 414.993 242.147 416.113 243.48C417.233 244.813 418.673 245.48 420.433 245.48H425.953ZM190.24 294.44C194.293 294.44 197.547 295.773 200 298.44C202.453 301.053 203.68 304.493 203.68 308.76V335H192.8V308.76C192.8 307.267 192.453 306.093 191.76 305.24C191.067 304.333 190.16 303.88 189.04 303.88H185.6C184.107 303.88 182.8 304.44 181.68 305.56C180.56 306.627 179.867 308.067 179.6 309.88V335H168.72V308.84C168.72 307.347 168.373 306.147 167.68 305.24C166.987 304.333 166.08 303.88 164.96 303.88H161.84C160.293 303.88 158.933 304.573 157.76 305.96C156.587 307.347 155.84 309.16 155.52 311.4V335H144.64V295.08H154.72V299.72C155.68 298.12 156.907 296.84 158.4 295.88C159.947 294.92 161.493 294.44 163.04 294.44H167.52C169.44 294.44 171.173 294.947 172.72 295.96C174.32 296.973 175.573 298.387 176.48 300.2C177.653 298.387 179.04 296.973 180.64 295.96C182.293 294.947 184.027 294.44 185.84 294.44H190.24ZM227.092 335.64C223.732 335.64 220.746 335 218.132 333.72C215.572 332.387 213.572 330.52 212.132 328.12C210.746 325.72 210.052 322.947 210.052 319.8V310.44C210.052 307.293 210.772 304.52 212.212 302.12C213.652 299.667 215.652 297.773 218.212 296.44C220.826 295.107 223.812 294.44 227.172 294.44H234.372C237.732 294.44 240.692 295.107 243.252 296.44C245.866 297.773 247.892 299.667 249.333 302.12C250.773 304.52 251.493 307.293 251.493 310.44V319.8C251.493 322.947 250.773 325.72 249.333 328.12C247.892 330.52 245.866 332.387 243.252 333.72C240.692 335 237.706 335.64 234.292 335.64H227.092ZM234.132 326.28C236.106 326.28 237.679 325.613 238.852 324.28C240.026 322.893 240.612 321.107 240.612 318.92V311.16C240.612 308.973 240.026 307.213 238.852 305.88C237.679 304.493 236.132 303.8 234.212 303.8H227.332C225.412 303.8 223.866 304.493 222.692 305.88C221.519 307.213 220.932 308.973 220.932 311.16V318.92C220.932 321.107 221.519 322.893 222.692 324.28C223.866 325.613 225.386 326.28 227.252 326.28H234.132ZM258.353 295.08H268.433V300.2C269.446 298.653 270.886 297.4 272.753 296.44C274.673 295.427 276.673 294.92 278.753 294.92H284.193V304.36H278.753C275.926 304.36 273.633 305.213 271.873 306.92C270.113 308.627 269.233 310.813 269.233 313.48V335H258.353V295.08ZM302.448 335.64C299.088 335.64 296.101 335.027 293.488 333.8C290.928 332.52 288.928 330.76 287.488 328.52C286.048 326.227 285.328 323.613 285.328 320.68V310.36C285.328 307.213 286.048 304.44 287.488 302.04C288.928 299.64 290.928 297.773 293.488 296.44C296.101 295.107 299.088 294.44 302.448 294.44H308.848C313.968 294.44 318.074 295.88 321.168 298.76C324.261 301.64 325.808 305.48 325.808 310.28V318.76H296.208V320.68C296.208 322.44 296.768 323.853 297.888 324.92C299.008 325.987 300.528 326.52 302.448 326.52H308.688C310.554 326.52 312.048 326.12 313.168 325.32C314.341 324.467 314.928 323.373 314.928 322.04H325.648C325.648 324.707 324.928 327.08 323.488 329.16C322.048 331.24 320.021 332.84 317.408 333.96C314.848 335.08 311.888 335.64 308.528 335.64H302.448ZM315.088 310.92V310.28C315.088 308.2 314.528 306.547 313.408 305.32C312.288 304.04 310.794 303.4 308.928 303.4H302.448C300.528 303.4 298.981 304.067 297.808 305.4C296.634 306.733 296.048 308.493 296.048 310.68V310.92H315.088ZM368.784 335.64C363.931 335.64 360.038 334.36 357.104 331.8C354.171 329.24 352.704 325.88 352.704 321.72H363.424C363.424 323.16 363.904 324.333 364.864 325.24C365.878 326.093 367.184 326.52 368.784 326.52H375.984C379.184 326.52 380.784 325.64 380.784 323.88V322.52C380.784 321.987 380.518 321.507 379.984 321.08C379.451 320.6 378.731 320.28 377.824 320.12L363.984 317.72C360.731 317.187 358.144 316.04 356.224 314.28C354.358 312.467 353.424 310.36 353.424 307.96V305.32C353.424 301.907 354.811 299.24 357.584 297.32C360.411 295.4 364.331 294.44 369.344 294.44H375.584C380.064 294.44 383.664 295.64 386.384 298.04C389.158 300.387 390.544 303.507 390.544 307.4H379.824C379.824 306.227 379.424 305.293 378.624 304.6C377.878 303.907 376.864 303.56 375.584 303.56H369.504C366.038 303.56 364.304 304.36 364.304 305.96V307.24C364.304 307.827 364.518 308.333 364.944 308.76C365.424 309.133 366.091 309.4 366.944 309.56L381.504 312.2C384.544 312.733 386.998 313.88 388.864 315.64C390.731 317.347 391.664 319.293 391.664 321.48V324.36C391.664 327.827 390.224 330.573 387.344 332.6C384.518 334.627 380.731 335.64 375.984 335.64H368.784ZM443.331 294.44C447.384 294.44 450.637 295.773 453.091 298.44C455.544 301.053 456.771 304.493 456.771 308.76V335H445.891V308.76C445.891 307.267 445.544 306.093 444.851 305.24C444.157 304.333 443.251 303.88 442.131 303.88H438.691C437.197 303.88 435.891 304.44 434.771 305.56C433.651 306.627 432.957 308.067 432.691 309.88V335H421.811V308.84C421.811 307.347 421.464 306.147 420.771 305.24C420.077 304.333 419.171 303.88 418.051 303.88H414.931C413.384 303.88 412.024 304.573 410.851 305.96C409.677 307.347 408.931 309.16 408.611 311.4V335H397.731V295.08H407.811V299.72C408.771 298.12 409.997 296.84 411.491 295.88C413.037 294.92 414.584 294.44 416.131 294.44H420.611C422.531 294.44 424.264 294.947 425.811 295.96C427.411 296.973 428.664 298.387 429.571 300.2C430.744 298.387 432.131 296.973 433.731 295.96C435.384 294.947 437.117 294.44 438.931 294.44H443.331ZM477.383 335.64C473.223 335.64 469.863 334.6 467.303 332.52C464.743 330.44 463.463 327.693 463.463 324.28V321.32C463.463 317.96 464.796 315.267 467.463 313.24C470.13 311.16 473.65 310.12 478.023 310.12H482.903C484.29 310.12 485.783 310.307 487.383 310.68C488.983 311.053 490.45 311.56 491.783 312.2V308.04C491.783 306.707 491.33 305.64 490.423 304.84C489.57 303.987 488.423 303.56 486.983 303.56H480.103C478.61 303.56 477.41 303.907 476.503 304.6C475.596 305.293 475.143 306.227 475.143 307.4H464.583C464.583 303.507 465.996 300.387 468.823 298.04C471.703 295.64 475.463 294.44 480.103 294.44H486.983C491.676 294.44 495.463 295.693 498.343 298.2C501.223 300.653 502.663 303.933 502.663 308.04V335H492.583V330.2C491.303 331.853 489.73 333.187 487.863 334.2C485.996 335.16 484.156 335.64 482.343 335.64H477.383ZM483.143 327.32C485.116 327.32 486.876 326.813 488.423 325.8C489.97 324.787 491.09 323.427 491.783 321.72V320.36C490.93 319.72 489.73 319.213 488.183 318.84C486.69 318.467 485.09 318.28 483.383 318.28H478.343C477.063 318.28 476.023 318.6 475.223 319.24C474.423 319.88 474.023 320.733 474.023 321.8V323.88C474.023 324.893 474.45 325.72 475.303 326.36C476.21 327 477.383 327.32 478.823 327.32H483.143ZM510.662 295.08H520.742V300.2C521.755 298.653 523.195 297.4 525.062 296.44C526.982 295.427 528.982 294.92 531.062 294.92H536.502V304.36H531.062C528.235 304.36 525.942 305.213 524.182 306.92C522.422 308.627 521.542 310.813 521.542 313.48V335H510.662V295.08ZM560.327 335C555.634 335 552.194 333.933 550.007 331.8C547.82 329.667 546.727 326.36 546.727 321.88V304.36H539.687V295.08H547.047V283H557.607V295.08H568.007V304.36H557.607V321.4C557.607 322.893 557.874 323.987 558.407 324.68C558.994 325.373 559.9 325.72 561.127 325.72H568.007V335H560.327Z" fill="#222223"/>
<path d="M143.665 401.203L147.849 411.645L152.032 401.203H154.221V414H152.533V409.017L152.691 403.638L148.49 414H147.198L143.006 403.664L143.173 409.017V414H141.485V401.203H143.665ZM161.072 414.176C159.783 414.176 158.734 413.754 157.925 412.91C157.117 412.061 156.712 410.927 156.712 409.509V409.21C156.712 408.267 156.891 407.426 157.248 406.688C157.612 405.943 158.116 405.363 158.76 404.947C159.41 404.525 160.114 404.314 160.869 404.314C162.106 404.314 163.067 404.722 163.752 405.536C164.438 406.351 164.781 407.517 164.781 409.034V409.711H158.338C158.362 410.648 158.634 411.407 159.156 411.987C159.683 412.562 160.351 412.849 161.159 412.849C161.734 412.849 162.22 412.731 162.618 412.497C163.017 412.263 163.366 411.952 163.664 411.565L164.658 412.339C163.861 413.563 162.665 414.176 161.072 414.176ZM160.869 405.65C160.213 405.65 159.662 405.891 159.217 406.371C158.772 406.846 158.496 407.514 158.391 408.375H163.155V408.252C163.108 407.426 162.885 406.787 162.487 406.336C162.088 405.879 161.549 405.65 160.869 405.65ZM170.797 414.176C169.507 414.176 168.459 413.754 167.65 412.91C166.841 412.061 166.437 410.927 166.437 409.509V409.21C166.437 408.267 166.616 407.426 166.973 406.688C167.337 405.943 167.84 405.363 168.485 404.947C169.135 404.525 169.839 404.314 170.594 404.314C171.831 404.314 172.792 404.722 173.477 405.536C174.163 406.351 174.506 407.517 174.506 409.034V409.711H168.063C168.087 410.648 168.359 411.407 168.881 411.987C169.408 412.562 170.076 412.849 170.884 412.849C171.459 412.849 171.945 412.731 172.343 412.497C172.742 412.263 173.09 411.952 173.389 411.565L174.382 412.339C173.586 413.563 172.39 414.176 170.797 414.176ZM170.594 405.65C169.938 405.65 169.387 405.891 168.942 406.371C168.497 406.846 168.221 407.514 168.116 408.375H172.88V408.252C172.833 407.426 172.61 406.787 172.212 406.336C171.813 405.879 171.274 405.65 170.594 405.65ZM178.781 402.188V404.49H180.557V405.747H178.781V411.645C178.781 412.025 178.86 412.312 179.019 412.506C179.177 412.693 179.446 412.787 179.827 412.787C180.015 412.787 180.272 412.752 180.601 412.682V414C180.173 414.117 179.757 414.176 179.353 414.176C178.626 414.176 178.078 413.956 177.709 413.517C177.34 413.077 177.155 412.453 177.155 411.645V405.747H175.424V404.49H177.155V402.188H178.781ZM189.495 402.188V404.49H191.27V405.747H189.495V411.645C189.495 412.025 189.574 412.312 189.732 412.506C189.89 412.693 190.16 412.787 190.541 412.787C190.728 412.787 190.986 412.752 191.314 412.682V414C190.886 414.117 190.47 414.176 190.066 414.176C189.339 414.176 188.792 413.956 188.422 413.517C188.053 413.077 187.869 412.453 187.869 411.645V405.747H186.137V404.49H187.869V402.188H189.495ZM194.983 405.642C195.704 404.757 196.642 404.314 197.796 404.314C199.806 404.314 200.819 405.448 200.837 407.716V414H199.211V407.707C199.205 407.021 199.047 406.515 198.736 406.187C198.432 405.858 197.954 405.694 197.304 405.694C196.776 405.694 196.313 405.835 195.915 406.116C195.517 406.397 195.206 406.767 194.983 407.224V414H193.357V400.5H194.983V405.642ZM207.398 414.176C206.109 414.176 205.06 413.754 204.251 412.91C203.443 412.061 203.038 410.927 203.038 409.509V409.21C203.038 408.267 203.217 407.426 203.574 406.688C203.938 405.943 204.442 405.363 205.086 404.947C205.737 404.525 206.44 404.314 207.196 404.314C208.432 404.314 209.393 404.722 210.078 405.536C210.764 406.351 211.107 407.517 211.107 409.034V409.711H204.664C204.688 410.648 204.96 411.407 205.482 411.987C206.009 412.562 206.677 412.849 207.486 412.849C208.06 412.849 208.546 412.731 208.945 412.497C209.343 412.263 209.692 411.952 209.99 411.565L210.984 412.339C210.187 413.563 208.991 414.176 207.398 414.176ZM207.196 405.65C206.539 405.65 205.989 405.891 205.543 406.371C205.098 406.846 204.822 407.514 204.717 408.375H209.481V408.252C209.434 407.426 209.211 406.787 208.813 406.336C208.414 405.879 207.875 405.65 207.196 405.65ZM217.391 409.157C217.391 408.226 217.572 407.388 217.935 406.644C218.305 405.899 218.814 405.325 219.465 404.921C220.121 404.517 220.868 404.314 221.706 404.314C223.001 404.314 224.047 404.763 224.844 405.659C225.646 406.556 226.048 407.748 226.048 409.236V409.351C226.048 410.276 225.869 411.108 225.512 411.847C225.16 412.579 224.653 413.15 223.991 413.561C223.335 413.971 222.579 414.176 221.724 414.176C220.434 414.176 219.389 413.728 218.586 412.831C217.789 411.935 217.391 410.748 217.391 409.271V409.157ZM219.025 409.351C219.025 410.405 219.268 411.252 219.755 411.891C220.247 412.529 220.903 412.849 221.724 412.849C222.55 412.849 223.206 412.526 223.692 411.882C224.179 411.231 224.422 410.323 224.422 409.157C224.422 408.114 224.173 407.271 223.675 406.626C223.183 405.976 222.526 405.65 221.706 405.65C220.903 405.65 220.256 405.97 219.764 406.608C219.271 407.247 219.025 408.161 219.025 409.351ZM229.805 404.49L229.858 405.686C230.584 404.771 231.533 404.314 232.705 404.314C234.715 404.314 235.729 405.448 235.746 407.716V414H234.12V407.707C234.114 407.021 233.956 406.515 233.646 406.187C233.341 405.858 232.863 405.694 232.213 405.694C231.686 405.694 231.223 405.835 230.824 406.116C230.426 406.397 230.115 406.767 229.893 407.224V414H228.267V404.49H229.805ZM240.145 414H238.519V400.5H240.145V414ZM246.047 411.618L248.262 404.49H250.002L246.179 415.468C245.587 417.05 244.646 417.841 243.357 417.841L243.05 417.814L242.443 417.7V416.382L242.883 416.417C243.433 416.417 243.861 416.306 244.166 416.083C244.476 415.86 244.731 415.453 244.931 414.861L245.291 413.895L241.898 404.49H243.674L246.047 411.618ZM261.823 411.478C261.823 411.038 261.656 410.698 261.322 410.458C260.994 410.212 260.416 410.001 259.59 409.825C258.77 409.649 258.117 409.438 257.63 409.192C257.15 408.946 256.792 408.653 256.558 408.313C256.33 407.974 256.215 407.569 256.215 407.101C256.215 406.321 256.543 405.662 257.2 405.123C257.862 404.584 258.706 404.314 259.731 404.314C260.809 404.314 261.682 404.593 262.35 405.149C263.024 405.706 263.361 406.418 263.361 407.285H261.726C261.726 406.84 261.536 406.456 261.155 406.134C260.78 405.812 260.305 405.65 259.731 405.65C259.139 405.65 258.676 405.779 258.342 406.037C258.008 406.295 257.841 406.632 257.841 407.048C257.841 407.44 257.997 407.736 258.307 407.936C258.618 408.135 259.177 408.325 259.986 408.507C260.8 408.688 261.459 408.905 261.963 409.157C262.467 409.409 262.839 409.714 263.08 410.071C263.326 410.423 263.449 410.854 263.449 411.363C263.449 412.213 263.109 412.896 262.429 413.411C261.749 413.921 260.868 414.176 259.784 414.176C259.022 414.176 258.348 414.041 257.762 413.771C257.176 413.502 256.716 413.127 256.382 412.646C256.054 412.16 255.89 411.636 255.89 411.073H257.516C257.545 411.618 257.762 412.052 258.166 412.374C258.577 412.69 259.116 412.849 259.784 412.849C260.399 412.849 260.891 412.726 261.26 412.479C261.635 412.228 261.823 411.894 261.823 411.478ZM273.78 409.351C273.78 410.798 273.449 411.964 272.787 412.849C272.125 413.733 271.228 414.176 270.097 414.176C268.943 414.176 268.035 413.81 267.373 413.077V417.656H265.747V404.49H267.232L267.311 405.545C267.973 404.725 268.893 404.314 270.071 404.314C271.214 404.314 272.116 404.745 272.778 405.606C273.446 406.468 273.78 407.666 273.78 409.201V409.351ZM272.154 409.166C272.154 408.094 271.926 407.247 271.469 406.626C271.012 406.005 270.385 405.694 269.588 405.694C268.603 405.694 267.865 406.131 267.373 407.004V411.548C267.859 412.415 268.603 412.849 269.605 412.849C270.385 412.849 271.003 412.541 271.46 411.926C271.923 411.305 272.154 410.385 272.154 409.166ZM279.981 414.176C278.692 414.176 277.643 413.754 276.834 412.91C276.026 412.061 275.621 410.927 275.621 409.509V409.21C275.621 408.267 275.8 407.426 276.157 406.688C276.521 405.943 277.025 405.363 277.669 404.947C278.319 404.525 279.023 404.314 279.778 404.314C281.015 404.314 281.976 404.722 282.661 405.536C283.347 406.351 283.69 407.517 283.69 409.034V409.711H277.247C277.271 410.648 277.543 411.407 278.065 411.987C278.592 412.562 279.26 412.849 280.068 412.849C280.643 412.849 281.129 412.731 281.527 412.497C281.926 412.263 282.275 411.952 282.573 411.565L283.567 412.339C282.77 413.563 281.574 414.176 279.981 414.176ZM279.778 405.65C279.122 405.65 278.571 405.891 278.126 406.371C277.681 406.846 277.405 407.514 277.3 408.375H282.064V408.252C282.017 407.426 281.794 406.787 281.396 406.336C280.997 405.879 280.458 405.65 279.778 405.65ZM287.297 404.49L287.35 405.686C288.077 404.771 289.026 404.314 290.198 404.314C292.207 404.314 293.221 405.448 293.239 407.716V414H291.613V407.707C291.607 407.021 291.449 406.515 291.138 406.187C290.833 405.858 290.356 405.694 289.706 405.694C289.178 405.694 288.715 405.835 288.317 406.116C287.918 406.397 287.608 406.767 287.385 407.224V414H285.759V404.49H287.297ZM295.475 409.166C295.475 407.707 295.821 406.535 296.512 405.65C297.204 404.76 298.109 404.314 299.228 404.314C300.342 404.314 301.223 404.695 301.874 405.457V400.5H303.5V414H302.006L301.927 412.98C301.276 413.777 300.371 414.176 299.211 414.176C298.109 414.176 297.21 413.725 296.512 412.822C295.821 411.92 295.475 410.742 295.475 409.289V409.166ZM297.101 409.351C297.101 410.429 297.324 411.272 297.769 411.882C298.215 412.491 298.83 412.796 299.615 412.796C300.646 412.796 301.399 412.333 301.874 411.407V407.039C301.387 406.143 300.64 405.694 299.633 405.694C298.836 405.694 298.215 406.002 297.769 406.617C297.324 407.232 297.101 408.144 297.101 409.351ZM312.385 404.49L312.429 405.545C313.126 404.725 314.067 404.314 315.25 404.314C316.58 404.314 317.486 404.824 317.966 405.844C318.283 405.387 318.693 405.018 319.197 404.736C319.706 404.455 320.307 404.314 320.998 404.314C323.084 404.314 324.145 405.419 324.18 407.628V414H322.554V407.725C322.554 407.045 322.399 406.538 322.088 406.204C321.778 405.864 321.256 405.694 320.524 405.694C319.92 405.694 319.419 405.876 319.021 406.239C318.622 406.597 318.391 407.08 318.327 407.689V414H316.692V407.769C316.692 406.386 316.015 405.694 314.662 405.694C313.595 405.694 312.866 406.148 312.473 407.057V414H310.847V404.49H312.385ZM332.692 414C332.598 413.812 332.522 413.479 332.464 412.998C331.708 413.783 330.805 414.176 329.757 414.176C328.819 414.176 328.049 413.912 327.445 413.385C326.847 412.852 326.549 412.178 326.549 411.363C326.549 410.373 326.924 409.605 327.674 409.061C328.429 408.51 329.49 408.234 330.855 408.234H332.437V407.487C332.437 406.919 332.267 406.468 331.927 406.134C331.588 405.794 331.087 405.624 330.425 405.624C329.844 405.624 329.358 405.771 328.966 406.063C328.573 406.356 328.377 406.711 328.377 407.127H326.742C326.742 406.652 326.909 406.195 327.243 405.756C327.583 405.311 328.04 404.959 328.614 404.701C329.194 404.443 329.83 404.314 330.521 404.314C331.617 404.314 332.475 404.59 333.096 405.141C333.717 405.686 334.04 406.438 334.063 407.399V411.776C334.063 412.649 334.175 413.344 334.397 413.859V414H332.692ZM329.994 412.761C330.504 412.761 330.987 412.629 331.444 412.365C331.901 412.102 332.232 411.759 332.437 411.337V409.386H331.163C329.171 409.386 328.175 409.969 328.175 411.135C328.175 411.645 328.344 412.043 328.684 412.33C329.024 412.617 329.461 412.761 329.994 412.761ZM338.33 404.49L338.383 405.686C339.109 404.771 340.059 404.314 341.231 404.314C343.24 404.314 344.254 405.448 344.272 407.716V414H342.646V407.707C342.64 407.021 342.481 406.515 342.171 406.187C341.866 405.858 341.389 405.694 340.738 405.694C340.211 405.694 339.748 405.835 339.35 406.116C338.951 406.397 338.641 406.767 338.418 407.224V414H336.792V404.49H338.33ZM352.775 414C352.681 413.812 352.605 413.479 352.546 412.998C351.79 413.783 350.888 414.176 349.839 414.176C348.902 414.176 348.131 413.912 347.528 413.385C346.93 412.852 346.631 412.178 346.631 411.363C346.631 410.373 347.006 409.605 347.756 409.061C348.512 408.51 349.573 408.234 350.938 408.234H352.52V407.487C352.52 406.919 352.35 406.468 352.01 406.134C351.67 405.794 351.169 405.624 350.507 405.624C349.927 405.624 349.441 405.771 349.048 406.063C348.656 406.356 348.459 406.711 348.459 407.127H346.825C346.825 406.652 346.992 406.195 347.326 405.756C347.665 405.311 348.122 404.959 348.697 404.701C349.277 404.443 349.912 404.314 350.604 404.314C351.7 404.314 352.558 404.59 353.179 405.141C353.8 405.686 354.122 406.438 354.146 407.399V411.776C354.146 412.649 354.257 413.344 354.48 413.859V414H352.775ZM350.077 412.761C350.586 412.761 351.07 412.629 351.527 412.365C351.984 412.102 352.315 411.759 352.52 411.337V409.386H351.245C349.253 409.386 348.257 409.969 348.257 411.135C348.257 411.645 348.427 412.043 348.767 412.33C349.107 412.617 349.543 412.761 350.077 412.761ZM356.488 409.166C356.488 407.684 356.831 406.506 357.516 405.633C358.202 404.754 359.11 404.314 360.241 404.314C361.401 404.314 362.306 404.725 362.957 405.545L363.036 404.49H364.521V413.771C364.521 415.002 364.155 415.972 363.423 416.681C362.696 417.39 361.717 417.744 360.487 417.744C359.801 417.744 359.131 417.598 358.474 417.305C357.818 417.012 357.317 416.61 356.971 416.101L357.815 415.125C358.512 415.986 359.365 416.417 360.373 416.417C361.164 416.417 361.779 416.194 362.218 415.749C362.664 415.304 362.886 414.677 362.886 413.868V413.051C362.236 413.801 361.348 414.176 360.223 414.176C359.11 414.176 358.208 413.728 357.516 412.831C356.831 411.935 356.488 410.713 356.488 409.166ZM358.123 409.351C358.123 410.423 358.342 411.267 358.782 411.882C359.221 412.491 359.837 412.796 360.628 412.796C361.653 412.796 362.406 412.33 362.886 411.398V407.057C362.388 406.148 361.641 405.694 360.645 405.694C359.854 405.694 359.236 406.002 358.791 406.617C358.345 407.232 358.123 408.144 358.123 409.351ZM371.108 414.176C369.819 414.176 368.771 413.754 367.962 412.91C367.153 412.061 366.749 410.927 366.749 409.509V409.21C366.749 408.267 366.928 407.426 367.285 406.688C367.648 405.943 368.152 405.363 368.797 404.947C369.447 404.525 370.15 404.314 370.906 404.314C372.143 404.314 373.104 404.722 373.789 405.536C374.475 406.351 374.817 407.517 374.817 409.034V409.711H368.375C368.398 410.648 368.671 411.407 369.192 411.987C369.72 412.562 370.388 412.849 371.196 412.849C371.771 412.849 372.257 412.731 372.655 412.497C373.054 412.263 373.402 411.952 373.701 411.565L374.694 412.339C373.897 413.563 372.702 414.176 371.108 414.176ZM370.906 405.65C370.25 405.65 369.699 405.891 369.254 406.371C368.809 406.846 368.533 407.514 368.428 408.375H373.191V408.252C373.145 407.426 372.922 406.787 372.523 406.336C372.125 405.879 371.586 405.65 370.906 405.65ZM378.416 404.49L378.46 405.545C379.158 404.725 380.098 404.314 381.282 404.314C382.612 404.314 383.517 404.824 383.997 405.844C384.314 405.387 384.724 405.018 385.228 404.736C385.738 404.455 386.338 404.314 387.03 404.314C389.116 404.314 390.176 405.419 390.211 407.628V414H388.585V407.725C388.585 407.045 388.43 406.538 388.119 406.204C387.809 405.864 387.287 405.694 386.555 405.694C385.951 405.694 385.451 405.876 385.052 406.239C384.654 406.597 384.422 407.08 384.358 407.689V414H382.723V407.769C382.723 406.386 382.046 405.694 380.693 405.694C379.626 405.694 378.897 406.148 378.504 407.057V414H376.878V404.49H378.416ZM396.798 414.176C395.509 414.176 394.461 413.754 393.652 412.91C392.843 412.061 392.439 410.927 392.439 409.509V409.21C392.439 408.267 392.618 407.426 392.975 406.688C393.339 405.943 393.842 405.363 394.487 404.947C395.137 404.525 395.84 404.314 396.596 404.314C397.833 404.314 398.794 404.722 399.479 405.536C400.165 406.351 400.507 407.517 400.507 409.034V409.711H394.065C394.089 410.648 394.361 411.407 394.882 411.987C395.41 412.562 396.078 412.849 396.886 412.849C397.461 412.849 397.947 412.731 398.345 412.497C398.744 412.263 399.092 411.952 399.391 411.565L400.384 412.339C399.588 413.563 398.392 414.176 396.798 414.176ZM396.596 405.65C395.94 405.65 395.389 405.891 394.944 406.371C394.499 406.846 394.223 407.514 394.118 408.375H398.881V408.252C398.835 407.426 398.612 406.787 398.214 406.336C397.815 405.879 397.276 405.65 396.596 405.65ZM404.115 404.49L404.168 405.686C404.895 404.771 405.844 404.314 407.016 404.314C409.025 404.314 410.039 405.448 410.057 407.716V414H408.431V407.707C408.425 407.021 408.267 406.515 407.956 406.187C407.651 405.858 407.174 405.694 406.523 405.694C405.996 405.694 405.533 405.835 405.135 406.116C404.736 406.397 404.426 406.767 404.203 407.224V414H402.577V404.49H404.115ZM414.895 402.188V404.49H416.67V405.747H414.895V411.645C414.895 412.025 414.974 412.312 415.132 412.506C415.29 412.693 415.56 412.787 415.941 412.787C416.128 412.787 416.386 412.752 416.714 412.682V414C416.286 414.117 415.87 414.176 415.466 414.176C414.74 414.176 414.192 413.956 413.823 413.517C413.453 413.077 413.269 412.453 413.269 411.645V405.747H411.537V404.49H413.269V402.188H414.895ZM149.264 439.351C149.264 440.798 148.933 441.964 148.271 442.849C147.608 443.733 146.712 444.176 145.581 444.176C144.427 444.176 143.519 443.81 142.856 443.077V447.656H141.23V434.49H142.716L142.795 435.545C143.457 434.725 144.377 434.314 145.555 434.314C146.697 434.314 147.6 434.745 148.262 435.606C148.93 436.468 149.264 437.666 149.264 439.201V439.351ZM147.638 439.166C147.638 438.094 147.409 437.247 146.952 436.626C146.495 436.005 145.868 435.694 145.071 435.694C144.087 435.694 143.349 436.131 142.856 437.004V441.548C143.343 442.415 144.087 442.849 145.089 442.849C145.868 442.849 146.486 442.541 146.943 441.926C147.406 441.305 147.638 440.385 147.638 439.166ZM153.284 444H151.659V430.5H153.284V444ZM161.946 444C161.852 443.812 161.776 443.479 161.717 442.998C160.962 443.783 160.059 444.176 159.01 444.176C158.073 444.176 157.302 443.912 156.699 443.385C156.101 442.852 155.802 442.178 155.802 441.363C155.802 440.373 156.177 439.605 156.927 439.061C157.683 438.51 158.744 438.234 160.109 438.234H161.691V437.487C161.691 436.919 161.521 436.468 161.181 436.134C160.841 435.794 160.34 435.624 159.678 435.624C159.098 435.624 158.612 435.771 158.219 436.063C157.827 436.356 157.631 436.711 157.631 437.127H155.996C155.996 436.652 156.163 436.195 156.497 435.756C156.837 435.311 157.294 434.959 157.868 434.701C158.448 434.443 159.084 434.314 159.775 434.314C160.871 434.314 161.729 434.59 162.35 435.141C162.971 435.686 163.294 436.438 163.317 437.399V441.776C163.317 442.649 163.428 443.344 163.651 443.859V444H161.946ZM159.248 442.761C159.757 442.761 160.241 442.629 160.698 442.365C161.155 442.102 161.486 441.759 161.691 441.337V439.386H160.417C158.424 439.386 157.428 439.969 157.428 441.135C157.428 441.645 157.598 442.043 157.938 442.33C158.278 442.617 158.714 442.761 159.248 442.761ZM168.252 432.188V434.49H170.027V435.747H168.252V441.645C168.252 442.025 168.331 442.312 168.489 442.506C168.647 442.693 168.917 442.787 169.298 442.787C169.485 442.787 169.743 442.752 170.071 442.682V444C169.644 444.117 169.228 444.176 168.823 444.176C168.097 444.176 167.549 443.956 167.18 443.517C166.811 443.077 166.626 442.453 166.626 441.645V435.747H164.894V434.49H166.626V432.188H168.252ZM172.914 444V435.747H171.411V434.49H172.914V433.515C172.914 432.495 173.187 431.707 173.732 431.15C174.277 430.594 175.047 430.315 176.043 430.315C176.418 430.315 176.79 430.365 177.159 430.465L177.072 431.783C176.796 431.73 176.503 431.704 176.193 431.704C175.665 431.704 175.258 431.859 174.971 432.17C174.684 432.475 174.54 432.914 174.54 433.488V434.49H176.571V435.747H174.54V444H172.914ZM178.122 439.157C178.122 438.226 178.303 437.388 178.667 436.644C179.036 435.899 179.546 435.325 180.196 434.921C180.852 434.517 181.599 434.314 182.437 434.314C183.732 434.314 184.778 434.763 185.575 435.659C186.378 436.556 186.779 437.748 186.779 439.236V439.351C186.779 440.276 186.6 441.108 186.243 441.847C185.891 442.579 185.384 443.15 184.722 443.561C184.066 443.971 183.31 444.176 182.455 444.176C181.166 444.176 180.12 443.728 179.317 442.831C178.52 441.935 178.122 440.748 178.122 439.271V439.157ZM179.756 439.351C179.756 440.405 180 441.252 180.486 441.891C180.978 442.529 181.634 442.849 182.455 442.849C183.281 442.849 183.937 442.526 184.423 441.882C184.91 441.231 185.153 440.323 185.153 439.157C185.153 438.114 184.904 437.271 184.406 436.626C183.914 435.976 183.257 435.65 182.437 435.65C181.634 435.65 180.987 435.97 180.495 436.608C180.003 437.247 179.756 438.161 179.756 439.351ZM193.595 435.949C193.349 435.908 193.082 435.888 192.795 435.888C191.728 435.888 191.005 436.342 190.624 437.25V444H188.998V434.49H190.58L190.606 435.589C191.14 434.739 191.895 434.314 192.874 434.314C193.19 434.314 193.431 434.355 193.595 434.438V435.949ZM196.807 434.49L196.851 435.545C197.548 434.725 198.489 434.314 199.672 434.314C201.002 434.314 201.907 434.824 202.388 435.844C202.704 435.387 203.114 435.018 203.618 434.736C204.128 434.455 204.729 434.314 205.42 434.314C207.506 434.314 208.567 435.419 208.602 437.628V444H206.976V437.725C206.976 437.045 206.821 436.538 206.51 436.204C206.199 435.864 205.678 435.694 204.946 435.694C204.342 435.694 203.841 435.876 203.443 436.239C203.044 436.597 202.813 437.08 202.748 437.689V444H201.114V437.769C201.114 436.386 200.437 435.694 199.083 435.694C198.017 435.694 197.287 436.148 196.895 437.057V444H195.269V434.49H196.807ZM221.759 444C221.665 443.812 221.589 443.479 221.53 442.998C220.774 443.783 219.872 444.176 218.823 444.176C217.886 444.176 217.115 443.912 216.512 443.385C215.914 442.852 215.615 442.178 215.615 441.363C215.615 440.373 215.99 439.605 216.74 439.061C217.496 438.51 218.557 438.234 219.922 438.234H221.504V437.487C221.504 436.919 221.334 436.468 220.994 436.134C220.654 435.794 220.153 435.624 219.491 435.624C218.911 435.624 218.425 435.771 218.032 436.063C217.64 436.356 217.443 436.711 217.443 437.127H215.808C215.808 436.652 215.975 436.195 216.309 435.756C216.649 435.311 217.106 434.959 217.681 434.701C218.261 434.443 218.896 434.314 219.588 434.314C220.683 434.314 221.542 434.59 222.163 435.141C222.784 435.686 223.106 436.438 223.13 437.399V441.776C223.13 442.649 223.241 443.344 223.464 443.859V444H221.759ZM219.06 442.761C219.57 442.761 220.054 442.629 220.511 442.365C220.968 442.102 221.299 441.759 221.504 441.337V439.386H220.229C218.237 439.386 217.241 439.969 217.241 441.135C217.241 441.645 217.411 442.043 217.751 442.33C218.091 442.617 218.527 442.761 219.06 442.761ZM227.397 434.49L227.449 435.686C228.176 434.771 229.125 434.314 230.297 434.314C232.307 434.314 233.321 435.448 233.338 437.716V444H231.712V437.707C231.706 437.021 231.548 436.515 231.238 436.187C230.933 435.858 230.455 435.694 229.805 435.694C229.278 435.694 228.815 435.835 228.416 436.116C228.018 436.397 227.707 436.767 227.485 437.224V444H225.859V434.49H227.397ZM235.575 439.166C235.575 437.707 235.92 436.535 236.612 435.65C237.303 434.76 238.209 434.314 239.328 434.314C240.441 434.314 241.323 434.695 241.973 435.457V430.5H243.599V444H242.105L242.026 442.98C241.376 443.777 240.47 444.176 239.31 444.176C238.209 444.176 237.309 443.725 236.612 442.822C235.92 441.92 235.575 440.742 235.575 439.289V439.166ZM237.201 439.351C237.201 440.429 237.423 441.272 237.869 441.882C238.314 442.491 238.929 442.796 239.714 442.796C240.746 442.796 241.499 442.333 241.973 441.407V437.039C241.487 436.143 240.74 435.694 239.732 435.694C238.935 435.694 238.314 436.002 237.869 436.617C237.423 437.232 237.201 438.144 237.201 439.351ZM254.77 442.849C255.35 442.849 255.857 442.673 256.29 442.321C256.724 441.97 256.964 441.53 257.011 441.003H258.549C258.52 441.548 258.332 442.066 257.986 442.559C257.641 443.051 257.178 443.443 256.598 443.736C256.024 444.029 255.414 444.176 254.77 444.176C253.475 444.176 252.444 443.745 251.676 442.884C250.914 442.017 250.533 440.833 250.533 439.333V439.061C250.533 438.135 250.703 437.312 251.043 436.591C251.383 435.87 251.869 435.311 252.502 434.912C253.141 434.514 253.894 434.314 254.761 434.314C255.827 434.314 256.712 434.634 257.415 435.272C258.124 435.911 258.502 436.74 258.549 437.76H257.011C256.964 437.145 256.73 436.641 256.308 436.248C255.892 435.85 255.376 435.65 254.761 435.65C253.935 435.65 253.293 435.949 252.836 436.547C252.385 437.139 252.159 437.997 252.159 439.122V439.43C252.159 440.525 252.385 441.369 252.836 441.961C253.287 442.553 253.932 442.849 254.77 442.849ZM260.126 439.157C260.126 438.226 260.308 437.388 260.671 436.644C261.041 435.899 261.55 435.325 262.201 434.921C262.857 434.517 263.604 434.314 264.442 434.314C265.737 434.314 266.783 434.763 267.58 435.659C268.382 436.556 268.784 437.748 268.784 439.236V439.351C268.784 440.276 268.605 441.108 268.248 441.847C267.896 442.579 267.389 443.15 266.727 443.561C266.071 443.971 265.315 444.176 264.459 444.176C263.17 444.176 262.124 443.728 261.322 442.831C260.525 441.935 260.126 440.748 260.126 439.271V439.157ZM261.761 439.351C261.761 440.405 262.004 441.252 262.491 441.891C262.983 442.529 263.639 442.849 264.459 442.849C265.286 442.849 265.942 442.526 266.428 441.882C266.915 441.231 267.158 440.323 267.158 439.157C267.158 438.114 266.909 437.271 266.411 436.626C265.918 435.976 265.262 435.65 264.442 435.65C263.639 435.65 262.992 435.97 262.499 436.608C262.007 437.247 261.761 438.161 261.761 439.351ZM275.599 435.949C275.353 435.908 275.087 435.888 274.8 435.888C273.733 435.888 273.01 436.342 272.629 437.25V444H271.003V434.49H272.585L272.611 435.589C273.144 434.739 273.9 434.314 274.879 434.314C275.195 434.314 275.435 434.355 275.599 434.438V435.949ZM285.316 439.351C285.316 440.798 284.984 441.964 284.322 442.849C283.66 443.733 282.764 444.176 281.633 444.176C280.479 444.176 279.57 443.81 278.908 443.077V447.656H277.282V434.49H278.768L278.847 435.545C279.509 434.725 280.429 434.314 281.607 434.314C282.749 434.314 283.651 434.745 284.314 435.606C284.982 436.468 285.316 437.666 285.316 439.201V439.351ZM283.69 439.166C283.69 438.094 283.461 437.247 283.004 436.626C282.547 436.005 281.92 435.694 281.123 435.694C280.139 435.694 279.401 436.131 278.908 437.004V441.548C279.395 442.415 280.139 442.849 281.141 442.849C281.92 442.849 282.538 442.541 282.995 441.926C283.458 441.305 283.69 440.385 283.69 439.166ZM287.139 439.157C287.139 438.226 287.321 437.388 287.684 436.644C288.053 435.899 288.563 435.325 289.213 434.921C289.87 434.517 290.617 434.314 291.455 434.314C292.749 434.314 293.795 434.763 294.592 435.659C295.395 436.556 295.796 437.748 295.796 439.236V439.351C295.796 440.276 295.618 441.108 295.26 441.847C294.909 442.579 294.402 443.15 293.74 443.561C293.083 443.971 292.328 444.176 291.472 444.176C290.183 444.176 289.137 443.728 288.334 442.831C287.538 441.935 287.139 440.748 287.139 439.271V439.157ZM288.774 439.351C288.774 440.405 289.017 441.252 289.503 441.891C289.996 442.529 290.652 442.849 291.472 442.849C292.298 442.849 292.955 442.526 293.441 441.882C293.927 441.231 294.17 440.323 294.17 439.157C294.17 438.114 293.921 437.271 293.423 436.626C292.931 435.976 292.275 435.65 291.455 435.65C290.652 435.65 290.004 435.97 289.512 436.608C289.02 437.247 288.774 438.161 288.774 439.351ZM302.612 435.949C302.366 435.908 302.099 435.888 301.812 435.888C300.746 435.888 300.022 436.342 299.641 437.25V444H298.015V434.49H299.597L299.624 435.589C300.157 434.739 300.913 434.314 301.891 434.314C302.208 434.314 302.448 434.355 302.612 434.438V435.949ZM309.815 444C309.721 443.812 309.645 443.479 309.586 442.998C308.83 443.783 307.928 444.176 306.879 444.176C305.941 444.176 305.171 443.912 304.567 443.385C303.97 442.852 303.671 442.178 303.671 441.363C303.671 440.373 304.046 439.605 304.796 439.061C305.552 438.51 306.612 438.234 307.978 438.234H309.56V437.487C309.56 436.919 309.39 436.468 309.05 436.134C308.71 435.794 308.209 435.624 307.547 435.624C306.967 435.624 306.481 435.771 306.088 436.063C305.695 436.356 305.499 436.711 305.499 437.127H303.864C303.864 436.652 304.031 436.195 304.365 435.756C304.705 435.311 305.162 434.959 305.736 434.701C306.316 434.443 306.952 434.314 307.644 434.314C308.739 434.314 309.598 434.59 310.219 435.141C310.84 435.686 311.162 436.438 311.186 437.399V441.776C311.186 442.649 311.297 443.344 311.52 443.859V444H309.815ZM307.116 442.761C307.626 442.761 308.109 442.629 308.566 442.365C309.024 442.102 309.355 441.759 309.56 441.337V439.386H308.285C306.293 439.386 305.297 439.969 305.297 441.135C305.297 441.645 305.467 442.043 305.807 442.33C306.147 442.617 306.583 442.761 307.116 442.761ZM316.121 432.188V434.49H317.896V435.747H316.121V441.645C316.121 442.025 316.2 442.312 316.358 442.506C316.516 442.693 316.786 442.787 317.166 442.787C317.354 442.787 317.612 442.752 317.94 442.682V444C317.512 444.117 317.096 444.176 316.692 444.176C315.965 444.176 315.417 443.956 315.048 443.517C314.679 443.077 314.495 442.453 314.495 441.645V435.747H312.763V434.49H314.495V432.188H316.121ZM323.929 444.176C322.64 444.176 321.592 443.754 320.783 442.91C319.974 442.061 319.57 440.927 319.57 439.509V439.21C319.57 438.267 319.749 437.426 320.106 436.688C320.469 435.943 320.973 435.363 321.618 434.947C322.268 434.525 322.971 434.314 323.727 434.314C324.964 434.314 325.925 434.722 326.61 435.536C327.296 436.351 327.638 437.517 327.638 439.034V439.711H321.196C321.219 440.648 321.492 441.407 322.013 441.987C322.541 442.562 323.209 442.849 324.017 442.849C324.592 442.849 325.078 442.731 325.476 442.497C325.875 442.263 326.223 441.952 326.522 441.565L327.515 442.339C326.718 443.563 325.523 444.176 323.929 444.176ZM323.727 435.65C323.071 435.65 322.52 435.891 322.075 436.371C321.63 436.846 321.354 437.514 321.249 438.375H326.012V438.252C325.966 437.426 325.743 436.787 325.344 436.336C324.946 435.879 324.407 435.65 323.727 435.65ZM338.167 442.849C338.747 442.849 339.254 442.673 339.688 442.321C340.121 441.97 340.362 441.53 340.409 441.003H341.947C341.917 441.548 341.73 442.066 341.384 442.559C341.038 443.051 340.576 443.443 339.995 443.736C339.421 444.029 338.812 444.176 338.167 444.176C336.872 444.176 335.841 443.745 335.074 442.884C334.312 442.017 333.931 440.833 333.931 439.333V439.061C333.931 438.135 334.101 437.312 334.441 436.591C334.781 435.87 335.267 435.311 335.9 434.912C336.538 434.514 337.291 434.314 338.159 434.314C339.225 434.314 340.11 434.634 340.813 435.272C341.522 435.911 341.9 436.74 341.947 437.76H340.409C340.362 437.145 340.127 436.641 339.705 436.248C339.289 435.85 338.774 435.65 338.159 435.65C337.332 435.65 336.691 435.949 336.234 436.547C335.783 437.139 335.557 437.997 335.557 439.122V439.43C335.557 440.525 335.783 441.369 336.234 441.961C336.685 442.553 337.329 442.849 338.167 442.849ZM349.826 444C349.732 443.812 349.656 443.479 349.597 442.998C348.841 443.783 347.939 444.176 346.89 444.176C345.953 444.176 345.182 443.912 344.579 443.385C343.981 442.852 343.682 442.178 343.682 441.363C343.682 440.373 344.057 439.605 344.807 439.061C345.563 438.51 346.624 438.234 347.989 438.234H349.571V437.487C349.571 436.919 349.401 436.468 349.061 436.134C348.721 435.794 348.22 435.624 347.558 435.624C346.978 435.624 346.492 435.771 346.099 436.063C345.707 436.356 345.51 436.711 345.51 437.127H343.876C343.876 436.652 344.043 436.195 344.377 435.756C344.716 435.311 345.174 434.959 345.748 434.701C346.328 434.443 346.964 434.314 347.655 434.314C348.751 434.314 349.609 434.59 350.23 435.141C350.851 435.686 351.174 436.438 351.197 437.399V441.776C351.197 442.649 351.308 443.344 351.531 443.859V444H349.826ZM347.128 442.761C347.637 442.761 348.121 442.629 348.578 442.365C349.035 442.102 349.366 441.759 349.571 441.337V439.386H348.297C346.304 439.386 345.308 439.969 345.308 441.135C345.308 441.645 345.478 442.043 345.818 442.33C346.158 442.617 346.594 442.761 347.128 442.761ZM358.522 435.949C358.276 435.908 358.01 435.888 357.723 435.888C356.656 435.888 355.933 436.342 355.552 437.25V444H353.926V434.49H355.508L355.534 435.589C356.067 434.739 356.823 434.314 357.802 434.314C358.118 434.314 358.358 434.355 358.522 434.438V435.949ZM359.634 439.166C359.634 437.707 359.98 436.535 360.671 435.65C361.363 434.76 362.268 434.314 363.387 434.314C364.5 434.314 365.382 434.695 366.033 435.457V430.5H367.659V444H366.164L366.085 442.98C365.435 443.777 364.53 444.176 363.369 444.176C362.268 444.176 361.368 443.725 360.671 442.822C359.98 441.92 359.634 440.742 359.634 439.289V439.166ZM361.26 439.351C361.26 440.429 361.483 441.272 361.928 441.882C362.373 442.491 362.989 442.796 363.774 442.796C364.805 442.796 365.558 442.333 366.033 441.407V437.039C365.546 436.143 364.799 435.694 363.791 435.694C362.994 435.694 362.373 436.002 361.928 436.617C361.483 437.232 361.26 438.144 361.26 439.351ZM370.405 443.147C370.405 442.866 370.487 442.632 370.651 442.444C370.821 442.257 371.073 442.163 371.407 442.163C371.741 442.163 371.993 442.257 372.163 442.444C372.339 442.632 372.426 442.866 372.426 443.147C372.426 443.417 372.339 443.643 372.163 443.824C371.993 444.006 371.741 444.097 371.407 444.097C371.073 444.097 370.821 444.006 370.651 443.824C370.487 443.643 370.405 443.417 370.405 443.147Z" fill="#535354"/>
<path d="M219.727 523.247C219.238 523.884 218.561 524.366 217.695 524.694C216.829 525.022 215.846 525.186 214.745 525.186C213.613 525.186 212.611 524.929 211.739 524.416C210.867 523.902 210.193 523.169 209.716 522.217C209.246 521.258 209.002 520.142 208.983 518.868V517.81C208.983 515.769 209.472 514.176 210.449 513.032C211.426 511.882 212.79 511.307 214.541 511.307C216.043 511.307 217.237 511.678 218.122 512.42C219.006 513.162 219.538 514.232 219.717 515.63H217.417C217.157 514.003 216.214 513.19 214.587 513.19C213.535 513.19 212.735 513.57 212.184 514.331C211.64 515.086 211.358 516.196 211.34 517.662V518.701C211.34 520.16 211.646 521.295 212.258 522.105C212.877 522.91 213.733 523.312 214.828 523.312C216.028 523.312 216.882 523.039 217.389 522.495V519.851H214.605V518.07H219.727V523.247ZM226.508 525.186C225.08 525.186 223.92 524.737 223.029 523.84C222.145 522.937 221.703 521.737 221.703 520.241V519.962C221.703 518.96 221.894 518.067 222.278 517.281C222.667 516.49 223.212 515.874 223.911 515.435C224.61 514.996 225.389 514.776 226.249 514.776C227.615 514.776 228.67 515.212 229.412 516.084C230.16 516.957 230.535 518.19 230.535 519.786V520.695H223.976C224.044 521.524 224.319 522.18 224.801 522.662C225.29 523.145 225.902 523.386 226.638 523.386C227.671 523.386 228.512 522.968 229.162 522.133L230.377 523.293C229.975 523.893 229.437 524.36 228.763 524.694C228.095 525.022 227.343 525.186 226.508 525.186ZM226.239 516.585C225.621 516.585 225.12 516.802 224.736 517.235C224.359 517.668 224.118 518.271 224.013 519.044H228.308V518.877C228.259 518.122 228.058 517.553 227.705 517.17C227.353 516.78 226.864 516.585 226.239 516.585ZM235.118 512.522V514.962H236.89V516.632H235.118V522.235C235.118 522.619 235.192 522.897 235.34 523.07C235.495 523.237 235.767 523.321 236.157 523.321C236.417 523.321 236.679 523.29 236.945 523.228V524.972C236.432 525.114 235.937 525.186 235.461 525.186C233.729 525.186 232.863 524.23 232.863 522.319V516.632H231.212V514.962H232.863V512.522H235.118ZM246.863 521.771L248.904 514.962H251.307L247.317 526.521C246.705 528.21 245.666 529.054 244.2 529.054C243.872 529.054 243.511 528.999 243.115 528.887V527.143L243.542 527.171C244.111 527.171 244.537 527.066 244.822 526.855C245.112 526.651 245.341 526.305 245.508 525.816L245.833 524.954L242.308 514.962H244.738L246.863 521.771ZM252.04 519.888C252.04 518.905 252.234 518.02 252.624 517.235C253.014 516.443 253.561 515.837 254.266 515.417C254.971 514.99 255.781 514.776 256.697 514.776C258.051 514.776 259.149 515.212 259.99 516.084C260.838 516.957 261.295 518.113 261.363 519.554L261.373 520.083C261.373 521.073 261.181 521.957 260.797 522.736C260.42 523.516 259.876 524.119 259.165 524.545C258.459 524.972 257.643 525.186 256.715 525.186C255.299 525.186 254.164 524.715 253.311 523.775C252.463 522.829 252.04 521.57 252.04 520V519.888ZM254.294 520.083C254.294 521.116 254.507 521.926 254.934 522.514C255.361 523.095 255.955 523.386 256.715 523.386C257.476 523.386 258.067 523.089 258.487 522.495C258.914 521.901 259.127 521.032 259.127 519.888C259.127 518.874 258.908 518.07 258.469 517.476C258.036 516.882 257.445 516.585 256.697 516.585C255.961 516.585 255.376 516.879 254.943 517.467C254.51 518.048 254.294 518.92 254.294 520.083ZM269.36 524.017C268.699 524.796 267.758 525.186 266.54 525.186C265.451 525.186 264.626 524.867 264.063 524.23C263.506 523.593 263.228 522.671 263.228 521.465V514.962H265.482V521.438C265.482 522.712 266.011 523.349 267.069 523.349C268.164 523.349 268.903 522.956 269.286 522.17V514.962H271.541V525H269.416L269.36 524.017ZM279.092 517.021C278.795 516.972 278.489 516.947 278.174 516.947C277.141 516.947 276.445 517.343 276.086 518.135V525H273.832V514.962H275.984L276.04 516.084C276.584 515.212 277.339 514.776 278.304 514.776C278.625 514.776 278.891 514.82 279.102 514.906L279.092 517.021ZM289.372 523.386C289.934 523.386 290.401 523.222 290.772 522.894C291.144 522.566 291.341 522.161 291.366 521.679H293.491C293.466 522.303 293.271 522.888 292.906 523.432C292.541 523.97 292.047 524.397 291.422 524.712C290.797 525.028 290.123 525.186 289.399 525.186C287.995 525.186 286.882 524.731 286.06 523.822C285.237 522.913 284.826 521.657 284.826 520.055V519.823C284.826 518.296 285.234 517.074 286.05 516.159C286.867 515.237 287.98 514.776 289.39 514.776C290.584 514.776 291.555 515.126 292.303 515.825C293.058 516.517 293.454 517.43 293.491 518.562H291.366C291.341 517.986 291.144 517.513 290.772 517.142C290.408 516.771 289.941 516.585 289.372 516.585C288.642 516.585 288.079 516.851 287.683 517.383C287.287 517.909 287.086 518.71 287.08 519.786V520.148C287.08 521.236 287.275 522.05 287.665 522.588C288.06 523.12 288.629 523.386 289.372 523.386ZM301.191 525C301.092 524.808 301.005 524.496 300.931 524.063C300.214 524.811 299.335 525.186 298.296 525.186C297.288 525.186 296.466 524.898 295.829 524.323C295.192 523.748 294.873 523.036 294.873 522.189C294.873 521.119 295.269 520.299 296.061 519.73C296.858 519.155 297.996 518.868 299.475 518.868H300.857V518.209C300.857 517.689 300.712 517.275 300.421 516.966C300.13 516.65 299.688 516.493 299.094 516.493C298.581 516.493 298.16 516.623 297.833 516.882C297.505 517.136 297.341 517.461 297.341 517.856H295.086C295.086 517.306 295.269 516.793 295.634 516.316C295.999 515.834 296.493 515.457 297.118 515.185C297.749 514.912 298.451 514.776 299.224 514.776C300.399 514.776 301.336 515.073 302.035 515.667C302.734 516.255 303.093 517.083 303.111 518.153V522.681C303.111 523.584 303.238 524.304 303.492 524.842V525H301.191ZM298.714 523.376C299.159 523.376 299.577 523.268 299.966 523.052C300.362 522.835 300.659 522.545 300.857 522.18V520.287H299.642C298.807 520.287 298.179 520.432 297.758 520.723C297.338 521.014 297.127 521.425 297.127 521.957C297.127 522.39 297.27 522.736 297.554 522.996C297.845 523.25 298.231 523.376 298.714 523.376ZM310.728 517.021C310.431 516.972 310.125 516.947 309.81 516.947C308.777 516.947 308.081 517.343 307.722 518.135V525H305.468V514.962H307.62L307.676 516.084C308.22 515.212 308.975 514.776 309.939 514.776C310.261 514.776 310.527 514.82 310.737 514.906L310.728 517.021ZM311.544 519.907C311.544 518.361 311.903 517.12 312.621 516.187C313.338 515.246 314.3 514.776 315.506 514.776C316.57 514.776 317.429 515.147 318.085 515.89V510.75H320.339V525H318.298L318.187 523.961C317.513 524.777 316.613 525.186 315.487 525.186C314.312 525.186 313.36 524.712 312.63 523.766C311.906 522.82 311.544 521.533 311.544 519.907ZM313.799 520.102C313.799 521.122 313.994 521.92 314.383 522.495C314.779 523.064 315.339 523.349 316.062 523.349C316.984 523.349 317.658 522.937 318.085 522.115V517.829C317.671 517.025 317.003 516.623 316.081 516.623C315.351 516.623 314.788 516.913 314.393 517.495C313.997 518.07 313.799 518.939 313.799 520.102Z" fill="#222223"/>
<g filter="url(#filter1_d_5_929)">
<rect x="140" y="493" width="50" height="50" fill="#222223"/>
</g>
<path d="M175 518L169.971 514L169.971 517.2L155 517.2L155 518.8L169.971 518.8L169.971 522L175 518Z" fill="#F3FAFE"/>
<defs>
<filter id="filter0_f_5_929" x="-317" y="-107" width="1282" height="940" filterUnits="userSpaceOnUse" color-interpolation-filters="sRGB">
<feFlood flood-opacity="0" result="BackgroundImageFix"/>
<feBlend mode="normal" in="SourceGraphic" in2="BackgroundImageFix" result="shape"/>
<feGaussianBlur stdDeviation="150" result="effect1_foregroundBlur_5_929"/>
</filter>
<filter id="filter1_d_5_929" x="110" y="473" width="110" height="110" filterUnits="userSpaceOnUse" color-interpolation-filters="sRGB">
<feFlood flood-opacity="0" result="BackgroundImageFix"/>
<feColorMatrix in="SourceAlpha" type="matrix" values="0 0 0 0 0 0 0 0 0 0 0 0 0 0 0 0 0 0 127 0" result="hardAlpha"/>
<feOffset dy="10"/>
<feGaussianBlur stdDeviation="15"/>
<feColorMatrix type="matrix" values="0 0 0 0 0.808333 0 0 0 0 0.808333 0 0 0 0 0.808333 0 0 0 0.6 0"/>
<feBlend mode="normal" in2="BackgroundImageFix" result="effect1_dropShadow_5_929"/>
<feBlend mode="normal" in="SourceGraphic" in2="effect1_dropShadow_5_929" result="shape"/>
</filter>
</defs>
</svg>
